<svg width="346" height="248" viewBox="0 0 346 248" fill="none" xmlns="http://www.w3.org/2000/svg">
<path d="M198.286 121.524C193.701 53.4495 111.77 23.1023 66.7726 77.0211C43.0566 105.46 49.444 160.587 50.1397 213.806C50.2662 222.798 49.4124 229.34 47.5784 233.433C38.9141 252.774 10.2019 251.279 2.86569 231.302C1.7484 228.248 1.18975 223.583 1.18975 217.305C1.09489 177.829 -3.39533 125.469 5.71164 91.4313C23.8623 23.7385 95.39 -16.0246 162.08 6.1791C210.239 22.2116 240.311 61.7202 246.73 112.649C252.232 156.102 200.942 161.001 198.286 121.524Z" fill="white"/>
<path d="M147.714 125.619C152.299 193.694 234.23 224.041 279.227 170.122C302.943 141.684 296.556 86.5559 295.86 33.3369C295.734 24.3452 296.588 17.8029 298.422 13.7099C307.086 -5.63089 335.798 -4.13584 343.134 15.8412C344.252 18.895 344.81 23.5605 344.81 29.8378C344.905 69.3146 349.395 121.675 340.288 155.712C322.138 223.405 250.61 263.168 183.92 240.964C135.761 224.932 105.689 185.423 99.2698 134.494C93.7677 91.0412 145.058 86.1424 147.714 125.619Z" fill="white"/>
</svg>
