<svg xmlns="http://www.w3.org/2000/svg" viewBox="0 0 473.66 90.11"><defs><style>.cls-1{fill:#fff;}</style></defs><g id="Layer_2" data-name="Layer 2"><g id="Layer_1-2" data-name="Layer 1"><path class="cls-1" d="M72.21,44.31C70.54,19.52,40.7,8.47,24.32,28.1,15.68,38.46,18,58.53,18.26,77.91c0,3.28-.27,5.66-.93,7.15-3.16,7-13.61,6.5-16.29-.78a16,16,0,0,1-.61-5.09c0-14.38-1.67-33.45,1.65-45.84C8.69,8.7,34.74-5.78,59,2.3,76.56,8.14,87.51,22.53,89.85,41.08,91.85,56.9,73.18,58.68,72.21,44.31Z"/><path class="cls-1" d="M197,18A26.66,26.66,0,0,0,176.32,28.1c-8.64,10.36-6.31,30.43-6.06,49.81.05,3.28-.27,5.66-.93,7.15-3.16,7-13.61,6.5-16.29-.78a16,16,0,0,1-.61-5.09c0-14.38-1.67-33.45,1.65-45.84a44.31,44.31,0,0,1,85.84,0c3.32,12.39,1.68,31.46,1.65,45.84a16,16,0,0,1-.61,5.09c-2.68,7.28-13.13,7.82-16.29.78-.66-1.49-1-3.87-.93-7.15.25-19.38,2.58-39.45-6.06-49.81A26.66,26.66,0,0,0,197,18Z"/><path class="cls-1" d="M53.79,45.8C55.46,70.59,85.3,81.64,101.68,62c8.64-10.36,6.31-30.44,6.06-49.82q-.06-4.9.93-7.14c3.16-7,13.62-6.5,16.29.77a16,16,0,0,1,.61,5.1c0,14.38,1.67,33.44-1.65,45.84C117.31,81.41,91.26,95.89,67,87.8,49.44,82,38.49,67.58,36.15,49,34.15,33.21,52.82,31.42,53.79,45.8Z"/><path class="cls-1" d="M428.61,90.11a45.06,45.06,0,1,1,45.05-45.06A45.11,45.11,0,0,1,428.61,90.11Zm0-72.11a27.06,27.06,0,1,0,27.05,27.05A27.09,27.09,0,0,0,428.61,18Z"/><path class="cls-1" d="M325.51,45.06l29.17-29.17A9,9,0,0,0,342,3.16L312.78,32.33,283.6,3.15a9,9,0,0,0-12.73,12.72l29.19,29.19L270.87,74.25A9,9,0,0,0,283.6,87l29.18-29.19L342,87a9,9,0,1,0,12.72-12.73Z"/></g></g></svg>