<svg width="54" height="32" viewBox="0 0 54 32" fill="none" xmlns="http://www.w3.org/2000/svg">
<g clip-path="url(#clip0)">
<path d="M6.70379 12.0375C2.17165 12.2235 0.251786 15.7882 0 15.9845C0.818304 17.0591 2.69621 19.7456 6.71429 19.9316C9.05379 20.0349 11.0681 18.4127 11.0786 16.0052C11.152 13.6907 9.05379 11.9032 6.70379 12.0375ZM6.76674 17.7101H6.72478C5.01473 17.7101 3.65089 16.6872 2.90603 15.9845C3.6404 15.2819 5.00424 14.259 6.72478 14.259C7.77388 14.1763 8.82299 14.7963 8.82299 15.9742C8.8125 17.0798 7.97321 17.7514 6.76674 17.7101Z" fill="white"/>
<path d="M48.5318 11.3245C46.6119 10.1879 44.4297 9.28899 42.0273 8.64837C39.5199 7.97675 36.7818 7.58411 33.8547 7.48079L22.4614 0H15.957V4.05037L18.4748 6.53019V9.55764C16.8382 10.0226 15.0128 10.5806 13.3027 11.0869V20.8925C14.9603 21.3781 16.7753 21.9361 18.4748 22.4217V25.4491L15.957 27.929V31.9793H22.4614L33.8443 24.4985C36.7713 24.3952 39.5094 24.0026 42.0168 23.331C44.4193 22.6903 46.6014 21.7811 48.5213 20.6548C52.5498 18.1027 52.8855 17.0694 53.7038 15.9845C52.8751 14.8789 52.5708 13.9077 48.5318 11.3245ZM18.2126 3.13077V2.2215H21.7795L29.8367 7.51179C26.448 7.68744 23.563 8.23507 20.7304 8.95835V5.61059L18.2126 3.13077ZM15.5583 19.2599V12.7504C16.4186 12.4921 17.5411 12.1511 18.4853 11.8825V14.8996H17.1005V17.1211H18.4853V20.1382C17.5726 19.8592 16.5445 19.5596 15.5583 19.2599ZM21.7795 29.7785H18.2126V28.8692L20.7304 26.3894V23.052C23.563 23.7753 26.448 24.3229 29.8367 24.4985L21.7795 29.7785ZM47.2414 18.8466C44.5032 20.4378 39.6668 22.3287 32.2076 22.3287C27.7804 22.3287 24.2449 21.6778 20.7409 20.7478V17.1004H22.1257V14.8789H20.7409V11.2315C24.2449 10.3016 27.7804 9.65063 32.2076 9.65063C39.6668 9.65063 44.5032 11.5518 47.2414 13.143C49.1193 14.228 50.2943 15.3335 50.9027 15.9948C50.2943 16.6665 49.1193 17.7617 47.2414 18.8466Z" fill="white"/>
<path d="M34.6626 18.5366C36.0893 19.9418 38.3974 19.9418 39.8242 18.5366C41.251 17.1314 41.251 14.8582 39.8242 13.453C38.3974 12.0477 36.0893 12.0477 34.6626 13.453C33.2463 14.8582 33.2463 17.1417 34.6626 18.5366ZM38.2295 15.0339C38.7751 15.5712 38.7751 16.4391 38.2295 16.9764C37.684 17.5137 36.8027 17.5137 36.2572 16.9764C35.7117 16.4391 35.7117 15.5712 36.2572 15.0339C36.8027 14.4966 37.684 14.4966 38.2295 15.0339Z" fill="white"/>
</g>
<defs>
<clipPath id="clip0">
<rect width="53.7143" height="32" fill="white"/>
</clipPath>
</defs>
</svg>
